<svg id="Faces" xmlns="http://www.w3.org/2000/svg" viewBox="0 0 2300.94 198"><defs><style>.cls-1,.cls-2,.cls-3,.cls-5{fill:none;stroke:#000;stroke-miterlimit:10;}.cls-1{stroke-width:9.1px;}.cls-2{stroke-width:7.28px;}.cls-3{stroke-width:5.46px;}.cls-4{fill:#fff;}.cls-5{stroke-width:7.28px;}</style></defs><title>emotion-faces</title><path d="M100,8.28c49.95,0,90.58,41.14,90.58,91.72S149.95,191.72,100,191.72,9.42,150.57,9.42,100,50.05,8.28,100,8.28M100,1C46,1,2.14,45.32,2.14,100S46,199,100,199s97.86-44.32,97.86-99S154,1,100,1h0Z" transform="translate(-2.14 -1)"/><line class="cls-1" x1="45.64" y1="61.75" x2="73.64" y2="89.74"/><line class="cls-1" x1="45.64" y1="89.74" x2="73.64" y2="61.75"/><line class="cls-1" x1="121.2" y1="61.75" x2="149.2" y2="89.74"/><line class="cls-1" x1="121.2" y1="89.74" x2="149.2" y2="61.75"/><line class="cls-2" x1="39.58" y1="130.63" x2="156.56" y2="130.63"/><path class="cls-3" d="M100.66,131.63S95.12,160,122.2,160s22.61-28.37,22.61-28.37H100.66Z" transform="translate(-2.14 -1)"/><line class="cls-3" x1="120.5" y1="132.08" x2="120.5" y2="147.25"/><path d="M341.48,8.28c49.95,0,90.58,41.14,90.58,91.72s-40.63,91.72-90.58,91.72S250.9,150.57,250.9,100,291.53,8.28,341.48,8.28m0-7.28c-54,0-97.86,44.32-97.86,99s43.81,99,97.86,99,97.86-44.32,97.86-99S395.53,1,341.48,1h0Z" transform="translate(-2.14 -1)"/><path d="M302.46,171.87s-0.61-70.27,40.06-70.27,37.78,70.27,37.78,70.27H302.46Z" transform="translate(-2.14 -1)"/><path class="cls-4" d="M322,115.38s6.22-11,18.62-11v11H322Z" transform="translate(-2.14 -1)"/><path class="cls-4" d="M362.6,115.38s-6.22-11-18.62-11v11H362.6Z" transform="translate(-2.14 -1)"/><path class="cls-4" d="M314.94,166.7s6.19-24.47,26.54-10.24c0,0,20.46-14.68,27.06,10.24h-53.6Z" transform="translate(-2.14 -1)"/><path d="M579.81,8.28c49.95,0,90.58,41.14,90.58,91.72s-40.63,91.72-90.58,91.72S489.23,150.57,489.23,100,529.87,8.28,579.81,8.28m0-7.28C525.77,1,482,45.32,482,100s43.81,99,97.86,99,97.86-44.32,97.86-99S633.86,1,579.81,1h0Z" transform="translate(-2.14 -1)"/><path d="M530.25,55.2l24.12,4s7.24,21.66-13.54,23.56C520.92,84.55,523,55.88,530.25,55.2Z" transform="translate(-2.14 -1)"/><path d="M606.72,59.63l24.12-3.76s14.68,22.64-9.67,27.42C621.17,83.3,598.87,85.47,606.72,59.63Z" transform="translate(-2.14 -1)"/><circle class="cls-4" cx="531.33" cy="65.95" r="6.45"/><circle class="cls-4" cx="611.55" cy="67.66" r="6.45"/><path d="M293.11,50.72l22.59,9.79s7.24,20.33-13.54,22.23C282.24,84.55,285.82,51.4,293.11,50.72Z" transform="translate(-2.14 -1)"/><path d="M368,60.51l24.12-9.79s14.68,27.81-9.67,32.59C382.49,83.3,360.19,86.34,368,60.51Z" transform="translate(-2.14 -1)"/><circle class="cls-4" cx="295.57" cy="65.95" r="6.45"/><circle class="cls-4" cx="374.67" cy="67.66" r="6.45"/><path d="M623.79,105h-88.3s-33.23,0-33.23,23.21,33.23,25.49,33.23,25.49h88.3S657,151.43,657,128.21,623.79,105,623.79,105Z" transform="translate(-2.14 -1)"/><path class="cls-4" d="M506.35,127.15s2.12-17.75,34.74-18.21,36.26,0,36.26,0v19.12l-71-.91" transform="translate(-2.14 -1)"/><path class="cls-4" d="M652.31,125.63s-2-16.23-25.19-16.23-44-.66-44-0.66l0.91,18Z" transform="translate(-2.14 -1)"/><path class="cls-4" d="M544.44,150.21s10.52-24.43,35.38-8.5c0,0,22.71-16.54,33.88,8.5C613.69,150.21,574.63,152,544.44,150.21Z" transform="translate(-2.14 -1)"/><path d="M808.92,8.28c49.95,0,90.58,41.14,90.58,91.72s-40.63,91.72-90.58,91.72S718.34,150.57,718.34,100,759,8.28,808.92,8.28m0-7.28c-54,0-97.86,44.32-97.86,99s43.81,99,97.86,99,97.86-44.32,97.86-99S863,1,808.92,1h0Z" transform="translate(-2.14 -1)"/><circle cx="767.08" cy="75.4" r="15.93"/><circle cx="848.33" cy="75.4" r="15.93"/><circle class="cls-4" cx="760.67" cy="71.57" r="6.45"/><circle class="cls-4" cx="841.88" cy="71.57" r="6.45"/><path class="cls-5" d="M753.29,139.52s10.7-17.9,53.48-17.9,55.83,17.9,55.83,17.9" transform="translate(-2.14 -1)"/><path d="M1037.23,8.28c49.95,0,90.58,41.14,90.58,91.72s-40.63,91.72-90.58,91.72S946.65,150.57,946.65,100s40.63-91.72,90.58-91.72m0-7.28c-54,0-97.86,44.32-97.86,99s43.81,99,97.86,99,97.86-44.32,97.86-99-43.81-99-97.86-99h0Z" transform="translate(-2.14 -1)"/><path class="cls-5" d="M966.83,124.58s16.08-7.81,35.2-7.81h80.87a43,43,0,0,1,24.73,7.81" transform="translate(-2.14 -1)"/><path d="M985.94,61s-12.44,9.26-.76,26.25H1011s13.2-13.81,0-26.25h-25Z" transform="translate(-2.14 -1)"/><path d="M1063.63,61s-12.44,9.26-.76,26.25h25.79s13.2-13.81,0-26.25h-25Z" transform="translate(-2.14 -1)"/><circle class="cls-4" cx="988.4" cy="73.09" r="6.45"/><circle class="cls-4" cx="1065.78" cy="73.09" r="6.45"/><path d="M1272.84,8.28c49.95,0,90.58,41.14,90.58,91.72s-40.63,91.72-90.58,91.72-90.58-41.14-90.58-91.72,40.63-91.72,90.58-91.72m0-7.28c-54,0-97.86,44.32-97.86,99s43.81,99,97.86,99,97.86-44.32,97.86-99-43.81-99-97.86-99h0Z" transform="translate(-2.14 -1)"/><line class="cls-5" x1="1275.69" y1="145.66" x2="1317.56" y2="139.28"/><path d="M1215.16,71.17s-4.25,23.67,17.45,23.67,18.81-23.67,18.81-23.67h-36.26Z" transform="translate(-2.14 -1)"/><path d="M1295.58,71.17s-4.25,23.67,17.45,23.67,18.81-23.67,18.81-23.67h-36.26Z" transform="translate(-2.14 -1)"/><circle class="cls-4" cx="1221.86" cy="78.71" r="6.45"/><circle class="cls-4" cx="1302.43" cy="78.71" r="6.45"/><ellipse cx="1460.29" cy="69.7" rx="15.93" ry="14.39"/><ellipse cx="1541.54" cy="69.7" rx="15.93" ry="14.39"/><circle class="cls-4" cx="1453.88" cy="68.43" r="6.45"/><circle class="cls-4" cx="1535.09" cy="68.43" r="6.45"/><path d="M1503.05,8.28c49.95,0,90.58,41.14,90.58,91.72s-40.63,91.72-90.58,91.72-90.58-41.14-90.58-91.72,40.63-91.72,90.58-91.72m0-7.28c-54,0-97.86,44.32-97.86,99s43.81,99,97.86,99,97.86-44.32,97.86-99S1557.1,1,1503.05,1h0Z" transform="translate(-2.14 -1)"/><path class="cls-5" d="M1573.45,116.75s-16.08,7.81-35.2,7.81h-80.87a43,43,0,0,1-24.73-7.81" transform="translate(-2.14 -1)"/><circle cx="1691.59" cy="71.23" r="15.93"/><circle cx="1772.84" cy="71.23" r="15.93"/><path class="cls-5" d="M1669.6,113.2s12.87,50.07,63.45,50.07,64.69-50.07,64.69-50.07" transform="translate(-2.14 -1)"/><circle class="cls-4" cx="1685.18" cy="67.4" r="6.45"/><circle class="cls-4" cx="1766.39" cy="67.4" r="6.45"/><path d="M1734.07,8.28c49.95,0,90.58,41.14,90.58,91.72s-40.63,91.72-90.58,91.72-90.58-41.14-90.58-91.72,40.63-91.72,90.58-91.72m0-7.28c-54,0-97.86,44.32-97.86,99s43.81,99,97.86,99,97.86-44.32,97.86-99-43.81-99-97.86-99h0Z" transform="translate(-2.14 -1)"/><path d="M1968.1,8.28c49.95,0,90.58,41.14,90.58,91.72s-40.63,91.72-90.58,91.72-90.58-41.14-90.58-91.72,40.63-91.72,90.58-91.72m0-7.28c-54,0-97.86,44.32-97.86,99s43.81,99,97.86,99S2066,154.68,2066,100,2022.15,1,1968.1,1h0Z" transform="translate(-2.14 -1)"/><path d="M1913.17,80.5h27.61s4.1-24.2-12.59-24.2S1911.81,70.34,1913.17,80.5Z" transform="translate(-2.14 -1)"/><path d="M1996,80.5h27.61s4.1-24.2-12.59-24.2S1994.68,70.34,1996,80.5Z" transform="translate(-2.14 -1)"/><circle class="cls-4" cx="1920.18" cy="68.43" r="6.45"/><circle class="cls-4" cx="2003.02" cy="68.43" r="6.45"/><path d="M1892.69,107.51h149.75s4.25,64.63-74.88,64.63S1892.69,107.51,1892.69,107.51Z" transform="translate(-2.14 -1)"/><path class="cls-4" d="M1897.85,112.82h67.21L1964,137.7s-55-2.82-63.33-8.94C1900.67,128.76,1898.46,127.84,1897.85,112.82Z" transform="translate(-2.14 -1)"/><path class="cls-4" d="M2036.49,112.82h-67.21l1.06,24.88s55-2.82,63.33-8.94C2033.67,128.76,2035.88,127.84,2036.49,112.82Z" transform="translate(-2.14 -1)"/><path class="cls-4" d="M1932,163s10.85-20.86,33.76-8.34c0,0,27.77-14,35.66,8.34C2001.4,163,1972.88,177.23,1932,163Z" transform="translate(-2.14 -1)"/><path d="M2205.22,8.28c49.95,0,90.58,41.14,90.58,91.72s-40.63,91.72-90.58,91.72-90.58-41.14-90.58-91.72,40.63-91.72,90.58-91.72m0-7.28c-54,0-97.86,44.32-97.86,99s43.81,99,97.86,99,97.86-44.32,97.86-99-43.81-99-97.86-99h0Z" transform="translate(-2.14 -1)"/><path class="cls-5" d="M2151.36,56.59s15.7-13.66,33.91,0" transform="translate(-2.14 -1)"/><path class="cls-5" d="M2225.41,56.59s15.7-13.66,33.91,0" transform="translate(-2.14 -1)"/><path d="M2125.18,82h157.49s18.29,89.21-77.45,99.46C2205.22,181.48,2115.85,181.48,2125.18,82Z" transform="translate(-2.14 -1)"/><path class="cls-4" d="M2130.19,87h71.61L2200,112.82s-64.33-2.88-69.79-8.8V87Z" transform="translate(-2.14 -1)"/><path class="cls-4" d="M2205.9,87h72.37v16.84s-16.23,7.74-70.55,9Z" transform="translate(-2.14 -1)"/><path class="cls-4" d="M2176.47,169.72s9.56-21.24,27.92-7.89c0,0,17.9-14.87,28.22,8.5C2232.6,170.32,2209.69,182.16,2176.47,169.72Z" transform="translate(-2.14 -1)"/></svg>