<svg id="d85d16f6-6891-48b8-912d-ea7533a6b30e" data-name="Faces" xmlns="http://www.w3.org/2000/svg" viewBox="0 0 200 200">
  <title>face</title>
  <g>
    <path d="M100,195.36c-52,0-94.22-42.78-94.22-95.36S48,4.64,100,4.64,194.22,47.42,194.22,100,152,195.36,100,195.36Z" style="fill: #fff; fill-opacity: 0.5;"/>
    <path d="M100,8.28c49.95,0,90.58,41.14,90.58,91.72S149.95,191.72,100,191.72,9.42,150.57,9.42,100,50.05,8.28,100,8.28M100,1C46,1,2.14,45.32,2.14,100S46,199,100,199s97.86-44.32,97.86-99S154,1,100,1h0Z"/>
  </g>
  <path d="M46.14,57.74s18.69-16.26,40.37,0" style="fill: none;stroke: #000;stroke-miterlimit: 10;stroke-width: 9px"/>
  <path d="M115,57.52s18.1-15.74,39.09,0" style="fill: none;stroke: #000;stroke-miterlimit: 10;stroke-width: 9px"/>
  <path d="M20,82H177.45s18.29,89.21-77.45,99.46C100,181.48,10.63,181.48,20,82Z"/>
  <path d="M32.14,87H97.78l-1.67,23.64s-59-2.64-64-8.07V87Z" style="fill: #fff"/>
  <path d="M101.53,87h66.33v15.43s-14.88,7.09-64.66,8.2Z" style="fill: #fff"/>
  <path d="M68.53,168.17s10.4-23.11,30.37-8.58c0,0,19.47-16.17,30.7,9.24C129.6,168.83,104.68,181.7,68.53,168.17Z" style="fill: #fff"/>
</svg>
