<svg id="Faces" xmlns="http://www.w3.org/2000/svg" viewBox="0 0 200 200"><defs><style>.cls-1{fill:#fff;}.cls-2{fill:none;stroke:#000;stroke-miterlimit:10;stroke-width:7.28px;}</style></defs><title>faces</title><ellipse cx="59.38" cy="70.7" rx="15.93" ry="14.39"/><ellipse cx="140.62" cy="70.7" rx="15.93" ry="14.39"/><circle class="cls-1" cx="52.97" cy="69.43" r="6.45"/><circle class="cls-1" cx="134.18" cy="69.43" r="6.45"/><path d="M100,8.28c49.95,0,90.58,41.14,90.58,91.72S149.95,191.72,100,191.72,9.42,150.57,9.42,100,50.05,8.28,100,8.28M100,1C46,1,2.14,45.32,2.14,100S46,199,100,199s97.86-44.32,97.86-99S154,1,100,1h0Z"/><path class="cls-2" d="M170.4,116.75s-16.08,7.81-35.2,7.81H54.33a43,43,0,0,1-24.73-7.81"/></svg>