<svg id="c0b20dd2-eeaf-4043-9e63-221529df78d7" data-name="Faces" xmlns="http://www.w3.org/2000/svg" viewBox="0 0 200 200">
  <title>face</title>
  <g>
    <path d="M100,195.36c-52,0-94.22-42.78-94.22-95.36S48,4.64,100,4.64,194.22,47.42,194.22,100,152,195.36,100,195.36Z" style="fill: #d1bfa5;"/>
    <path d="M100,8.28c49.95,0,90.58,41.14,90.58,91.72S149.95,191.72,100,191.72,9.42,150.57,9.42,100,50.05,8.28,100,8.28M100,1C46,1,2.14,45.32,2.14,100S46,199,100,199s97.86-44.32,97.86-99S154,1,100,1h0Z"/>
  </g>
  <path d="M29.6,130.57s4.4-13.8,35.2-13.8h80.87s14.22-1.68,22.58,12.73" style="fill: none;stroke: #000;stroke-miterlimit: 10;stroke-width: 8px"/>
  <path d="M49.92,55.5s-15,11.18-.92,31.72H80.17s16-16.69,0-31.72H49.92Z"/>
  <path d="M119.92,55.46s-15.05,11.2-.92,31.76H150.2s16-16.7,0-31.76H119.92Z"/>
  <circle cx="56.64" cy="69.67" r="6.45" style="fill: #fff"/>
  <circle cx="127.02" cy="69.41" r="6.55" style="fill: #fff"/>
</svg>
