<svg id="Faces" xmlns="http://www.w3.org/2000/svg" viewBox="0 0 200 200"><defs><style>.cls-1{fill:#fff;}.cls-2{fill:none;stroke:#000;stroke-miterlimit:10;stroke-width:7.28px;}</style></defs><title>faces</title><path d="M100,8.28c49.95,0,90.58,41.14,90.58,91.72S149.95,191.72,100,191.72,9.42,150.57,9.42,100,50.05,8.28,100,8.28M100,1C46,1,2.14,45.32,2.14,100S46,199,100,199s97.86-44.32,97.86-99S154,1,100,1h0Z"/><circle cx="60.3" cy="76.4" r="15.93"/><circle cx="141.55" cy="76.4" r="15.93"/><circle class="cls-1" cx="53.89" cy="72.57" r="6.45"/><circle class="cls-1" cx="135.1" cy="72.57" r="6.45"/><path class="cls-2" d="M44.37,139.52s10.7-17.9,53.48-17.9,55.83,17.9,55.83,17.9"/></svg>