<svg id="1a642720-6a2a-45f2-95b7-f4b4dcdfd3a9" data-name="Faces" xmlns="http://www.w3.org/2000/svg" viewBox="0 0 200 200">
  <title>face</title>
  <g>
    <path d="M100,195.36c-52,0-94.22-42.78-94.22-95.36S48,4.64,100,4.64,194.22,47.42,194.22,100,152,195.36,100,195.36Z" style="fill: #fff; fill-opacity: 0.5;"/>
    <path d="M100,8.28c49.95,0,90.58,41.14,90.58,91.72S149.95,191.72,100,191.72,9.42,150.57,9.42,100,50.05,8.28,100,8.28M100,1C46,1,2.14,45.32,2.14,100S46,199,100,199s97.86-44.32,97.86-99S154,1,100,1h0Z"/>
  </g>
  <line x1="64.36" y1="138.23" x2="152.38" y2="123.64" style="fill: none;stroke: #000;stroke-miterlimit: 10;stroke-width: 8px"/>
  <path d="M42.39,61.69S37.22,90.53,63.65,90.53,86.58,61.69,86.58,61.69H42.39Z"/>
  <path d="M115.78,62.34s-5.06,28.19,20.78,28.19S159,62.34,159,62.34H115.78Z"/>
  <circle cx="53" cy="71.98" r="6.45" style="fill: #fff"/>
  <circle cx="125.92" cy="71.73" r="6.55" style="fill: #fff"/>
</svg>
