<svg id="a5af5582-9536-431d-b415-e0675494627b" data-name="Faces" xmlns="http://www.w3.org/2000/svg" viewBox="0 0 200 200">
  <title>face</title>
  <g>
    <path d="M100,195.36c-52,0-94.22-42.78-94.22-95.36S48,4.64,100,4.64,194.22,47.42,194.22,100,152,195.36,100,195.36Z" style="fill: #fff; fill-opacity: 0.5;"/>
    <path d="M100,8.28c49.95,0,90.58,41.14,90.58,91.72S149.95,191.72,100,191.72,9.42,150.57,9.42,100,50.05,8.28,100,8.28M100,1C46,1,2.14,45.32,2.14,100S46,199,100,199s97.86-44.32,97.86-99S154,1,100,1h0Z"/>
  </g>
  <path d="M46.89,49.5l29,7.81s8.71,23.06-16.3,25.34C35.65,84.84,38.12,50.32,46.89,49.5Z"/>
  <circle cx="54.01" cy="65.79" r="7.76" style="fill: #fff"/>
  <path d="M146,49.5l-29,7.81s-8.71,23.06,16.3,25.34C157.25,84.84,154.79,50.32,146,49.5Z"/>
  <circle cx="128.08" cy="65.79" r="7.76" style="fill: #fff"/>
  <path d="M144,105H55.67s-33.23,0-33.23,23.21S55.67,153.7,55.67,153.7H144s33.23-2.28,33.23-25.49S144,105,144,105Z"/>
  <path d="M45,122.74S37.2,110.4,61.77,110.05s36.75,0,36.75,0v13.37L45,123.76" style="fill: #fff"/>
  <path d="M155,122.62s5.86-12.23-11.63-12.23-40.48-.5-40.48-0.5l0.69,13.52Z" style="fill: #fff"/>
  <path d="M71.93,150.78s8.53-19.8,28.68-6.89c0,0,18.41-13.41,27.46,6.89C128.07,150.78,96.41,152.26,71.93,150.78Z" style="fill: #fff"/>
</svg>
