<svg id="d57db20c-1165-4e34-b63c-f1e5162ee138" data-name="Faces" xmlns="http://www.w3.org/2000/svg" viewBox="0 0 200 200">
  <title>face</title>
  <g>
    <path d="M100,195.36c-52,0-94.22-42.78-94.22-95.36S48,4.64,100,4.64,194.22,47.42,194.22,100,152,195.36,100,195.36Z" style="fill: #fff; fill-opacity: 0.5;"/>
    <path d="M100,8.28c49.95,0,90.58,41.14,90.58,91.72S149.95,191.72,100,191.72,9.42,150.57,9.42,100,50.05,8.28,100,8.28M100,1C46,1,2.14,45.32,2.14,100S46,199,100,199s97.86-44.32,97.86-99S154,1,100,1h0Z"/>
  </g>
  <path d="M170.4,114.25s-4.4,16.32-35.2,16.32H54.33s-16-2.23-24.73-13.8" style="fill: none;stroke: #000;stroke-miterlimit: 10;stroke-width: 8px"/>
  <ellipse cx="62.72" cy="71.77" rx="19.27" ry="16.4"/>
  <ellipse cx="137.28" cy="71.77" rx="19.27" ry="16.4"/>
  <circle cx="54.97" cy="69.21" r="7.8" style="fill: #fff"/>
  <circle cx="129.48" cy="69.21" r="7.8" style="fill: #fff"/>
</svg>
