<svg id="Faces" xmlns="http://www.w3.org/2000/svg" viewBox="0 0 200 200"><defs><style>.cls-1{fill:#fff;}</style></defs><title>face</title><path d="M100,8.28c49.95,0,90.58,41.14,90.58,91.72S149.95,191.72,100,191.72,9.42,150.57,9.42,100,50.05,8.28,100,8.28M100,1C46,1,2.14,45.32,2.14,100S46,199,100,199s97.86-44.32,97.86-99S154,1,100,1h0Z"/><path d="M61,171.87S60.38,101.6,101,101.6s37.78,70.27,37.78,70.27H61Z"/><path class="cls-1" d="M80.55,115.38s6.22-11,18.62-11v11H80.55Z"/><path class="cls-1" d="M121.12,115.38s-6.22-11-18.62-11v11h18.62Z"/><path class="cls-1" d="M73.46,166.7s6.19-24.47,26.54-10.24c0,0,20.46-14.68,27.06,10.24H73.46Z"/><path d="M51.63,50.72l22.59,9.79s7.24,20.33-13.54,22.23C40.76,84.55,44.34,51.4,51.63,50.72Z"/><path d="M126.56,60.51l24.12-9.79S165.37,78.52,141,83.3C141,83.3,118.71,86.34,126.56,60.51Z"/><circle class="cls-1" cx="56.22" cy="66.95" r="6.45"/><circle class="cls-1" cx="135.32" cy="68.66" r="6.45"/></svg>