<svg id="Faces" xmlns="http://www.w3.org/2000/svg" viewBox="0 0 200 200"><defs><style>.cls-1{fill:none;stroke:#000;stroke-miterlimit:10;stroke-width:7.28px;}.cls-2{fill:#fff;}</style></defs><title>faces</title><circle cx="59.65" cy="72.23" r="15.93"/><circle cx="140.9" cy="72.23" r="15.93"/><path class="cls-1" d="M35.53,113.2S48.4,163.27,99,163.27s64.69-50.07,64.69-50.07"/><circle class="cls-2" cx="53.24" cy="68.4" r="6.45"/><circle class="cls-2" cx="134.45" cy="68.4" r="6.45"/><path d="M100,8.28c49.95,0,90.58,41.14,90.58,91.72S149.95,191.72,100,191.72,9.42,150.57,9.42,100,50.05,8.28,100,8.28M100,1C46,1,2.14,45.32,2.14,100S46,199,100,199s97.86-44.32,97.86-99S154,1,100,1h0Z"/></svg>