<svg id="Faces" xmlns="http://www.w3.org/2000/svg" viewBox="0 0 200 200"><defs><style>.cls-1{fill:#fff;}</style></defs><title>faces</title><path d="M100,8.28c49.95,0,90.58,41.14,90.58,91.72S149.95,191.72,100,191.72,9.42,150.57,9.42,100,50.05,8.28,100,8.28M100,1C46,1,2.14,45.32,2.14,100S46,199,100,199s97.86-44.32,97.86-99S154,1,100,1h0Z"/><path d="M45.08,80.5H72.69s4.1-24.2-12.59-24.2S43.71,70.34,45.08,80.5Z"/><path d="M127.95,80.5h27.61s4.1-24.2-12.59-24.2S126.58,70.34,127.95,80.5Z"/><circle class="cls-1" cx="54.22" cy="69.43" r="6.45"/><circle class="cls-1" cx="137.06" cy="69.43" r="6.45"/><path d="M24.59,107.51H174.34s4.25,64.63-74.88,64.63S24.59,107.51,24.59,107.51Z"/><path class="cls-1" d="M29.75,112.82H97L95.9,137.7s-55-2.82-63.33-8.94C32.57,128.76,30.36,127.84,29.75,112.82Z"/><path class="cls-1" d="M168.39,112.82H101.18l1.06,24.88s55-2.82,63.33-8.94C165.57,128.76,167.78,127.84,168.39,112.82Z"/><path class="cls-1" d="M63.89,163s10.85-20.86,33.76-8.34c0,0,27.77-14,35.66,8.34C133.3,163,104.78,177.23,63.89,163Z"/></svg>