<svg id="b4b8757c-82ee-4581-ad83-ec19f77f2ae5" data-name="Faces" xmlns="http://www.w3.org/2000/svg" viewBox="0 0 200 200">
  <title>face</title>
  <g>
    <path d="M100,195.36c-52,0-94.22-42.78-94.22-95.36S48,4.64,100,4.64,194.22,47.42,194.22,100,152,195.36,100,195.36Z" style="fill: #fff; fill-opacity: 0.5;"/>
    <path d="M100,8.28c49.95,0,90.58,41.14,90.58,91.72S149.95,191.72,100,191.72,9.42,150.57,9.42,100,50.05,8.28,100,8.28M100,1C46,1,2.14,45.32,2.14,100S46,199,100,199s97.86-44.32,97.86-99S154,1,100,1h0Z"/>
  </g>
  <path d="M45.19,85.33H78.32s4.91-29-15.11-29S43.55,73.14,45.19,85.33Z"/>
  <path d="M122.35,85.33h33.13s4.91-29-15.11-29S120.71,73.14,122.35,85.33Z"/>
  <circle cx="56.16" cy="72.05" r="7.74" style="fill: #fff"/>
  <circle cx="133.28" cy="72.05" r="7.74" style="fill: #fff"/>
  <path d="M24.59,107.51H174.34s4.25,64.63-74.88,64.63S24.59,107.51,24.59,107.51Z"/>
  <path d="M51.15,111.5H100l-0.77,18.09s-40-2-46-6.5C53.2,123.09,51.6,122.42,51.15,111.5Z" style="fill: #fff"/>
  <path d="M151.95,111.5H103.08l0.77,18.09s40-2,46-6.5C149.9,123.09,151.5,122.42,151.95,111.5Z" style="fill: #fff"/>
  <path d="M70.45,161.83s9.07-17.44,28.22-7c0,0,23.21-11.73,29.81,7C128.48,161.83,104.64,173.69,70.45,161.83Z" style="fill: #fff"/>
</svg>
