<svg id="Faces" xmlns="http://www.w3.org/2000/svg" viewBox="0 0 200 200"><defs><style>.cls-1{fill:#fff;}</style></defs><title>faces</title><path d="M100,8.28c49.95,0,90.58,41.14,90.58,91.72S149.95,191.72,100,191.72,9.42,150.57,9.42,100,50.05,8.28,100,8.28M100,1C46,1,2.14,45.32,2.14,100S46,199,100,199s97.86-44.32,97.86-99S154,1,100,1h0Z"/><path d="M50.44,55.2l24.12,4S81.8,80.83,61,82.73C41.11,84.55,43.15,55.88,50.44,55.2Z"/><path d="M126.91,59.63L151,55.88s14.68,22.64-9.67,27.42C141.36,83.3,119.05,85.47,126.91,59.63Z"/><circle class="cls-1" cx="53.65" cy="66.95" r="6.45"/><circle class="cls-1" cx="133.88" cy="68.66" r="6.45"/><path d="M144,105H55.67s-33.23,0-33.23,23.21S55.67,153.7,55.67,153.7H144s33.23-2.28,33.23-25.49S144,105,144,105Z"/><path class="cls-1" d="M26.54,127.15s2.12-17.75,34.74-18.21,36.26,0,36.26,0v19.12l-71-.91"/><path class="cls-1" d="M172.5,125.63s-2-16.23-25.19-16.23-44-.66-44-0.66l0.91,18Z"/><path class="cls-1" d="M64.62,150.21s10.52-24.43,35.38-8.5c0,0,22.71-16.54,33.88,8.5C133.88,150.21,94.82,152,64.62,150.21Z"/></svg>