<svg id="Faces" xmlns="http://www.w3.org/2000/svg" viewBox="0 0 200 200"><defs><style>.cls-1,.cls-2,.cls-3{fill:none;stroke:#000;stroke-miterlimit:10;}.cls-1{stroke-width:9.1px;}.cls-2{stroke-width:7.28px;}.cls-3{stroke-width:5.46px;}</style></defs><title>faces</title><path d="M100,8.28c49.95,0,90.58,41.14,90.58,91.72S149.95,191.72,100,191.72,9.42,150.57,9.42,100,50.05,8.28,100,8.28M100,1C46,1,2.14,45.32,2.14,100S46,199,100,199s97.86-44.32,97.86-99S154,1,100,1h0Z"/><line class="cls-1" x1="47.78" y1="62.75" x2="75.78" y2="90.74"/><line class="cls-1" x1="47.78" y1="90.74" x2="75.78" y2="62.75"/><line class="cls-1" x1="123.34" y1="62.75" x2="151.33" y2="90.74"/><line class="cls-1" x1="123.34" y1="90.74" x2="151.33" y2="62.75"/><line class="cls-2" x1="41.71" y1="131.63" x2="158.69" y2="131.63"/><path class="cls-3" d="M100.66,131.63S95.12,160,122.2,160s22.61-28.37,22.61-28.37H100.66Z"/><line class="cls-3" x1="122.64" y1="133.08" x2="122.64" y2="148.25"/></svg>