<svg id="2c9c92a9-6d92-4612-ba15-37b3bf40b357" data-name="Faces" xmlns="http://www.w3.org/2000/svg" viewBox="0 0 200 200">
  <title>face</title>
  <g>
    <path d="M100,195.36c-52,0-94.22-42.78-94.22-95.36S48,4.64,100,4.64,194.22,47.42,194.22,100,152,195.36,100,195.36Z" style="fill: #fff; fill-opacity: 0.5;"/>
    <path d="M100,8.28c49.95,0,90.58,41.14,90.58,91.72S149.95,191.72,100,191.72,9.42,150.57,9.42,100,50.05,8.28,100,8.28M100,1C46,1,2.14,45.32,2.14,100S46,199,100,199s97.86-44.32,97.86-99S154,1,100,1h0Z"/>
  </g>
  <circle cx="62.56" cy="74.15" r="18.19"/>
  <circle cx="139.06" cy="73.92" r="18.42"/>
  <circle cx="55.24" cy="69.77" r="7.36" style="fill: #fff"/>
  <circle cx="131.61" cy="69.49" r="7.46" style="fill: #fff"/>
  <path d="M44.37,139.52s10.7-17.9,53.48-17.9,55.83,17.9,55.83,17.9" style="fill: none;stroke: #000;stroke-miterlimit: 10;stroke-width: 8px"/>
</svg>
