<svg id="Faces" xmlns="http://www.w3.org/2000/svg" viewBox="0 0 200 200"><defs><style>.cls-1{fill:none;stroke:#000;stroke-miterlimit:10;stroke-width:7.28px;}.cls-2{fill:#fff;}</style></defs><title>faces</title><path d="M100,8.28c49.95,0,90.58,41.14,90.58,91.72S149.95,191.72,100,191.72,9.42,150.57,9.42,100,50.05,8.28,100,8.28M100,1C46,1,2.14,45.32,2.14,100S46,199,100,199s97.86-44.32,97.86-99S154,1,100,1h0Z"/><path class="cls-1" d="M29.6,124.58s16.08-7.81,35.2-7.81h80.87a43,43,0,0,1,24.73,7.81"/><path d="M48.72,61S36.28,70.22,48,87.22H73.75S87,73.41,73.75,61h-25Z"/><path d="M126.4,61s-12.44,9.26-.76,26.25h25.79s13.2-13.81,0-26.25h-25Z"/><circle class="cls-2" cx="53.31" cy="74.09" r="6.45"/><circle class="cls-2" cx="130.69" cy="74.09" r="6.45"/></svg>