<svg id="Faces" xmlns="http://www.w3.org/2000/svg" viewBox="0 0 200 200"><defs><style>.cls-1{fill:none;stroke:#000;stroke-miterlimit:10;stroke-width:7.28px;}.cls-2{fill:#fff;}</style></defs><title>faces</title><path d="M100,8.28c49.95,0,90.58,41.14,90.58,91.72S149.95,191.72,100,191.72,9.42,150.57,9.42,100,50.05,8.28,100,8.28M100,1C46,1,2.14,45.32,2.14,100S46,199,100,199s97.86-44.32,97.86-99S154,1,100,1h0Z"/><path class="cls-1" d="M46.14,56.59s15.7-13.66,33.91,0"/><path class="cls-1" d="M120.19,56.59s15.7-13.66,33.91,0"/><path d="M20,82H177.45s18.29,89.21-77.45,99.46C100,181.48,10.63,181.48,20,82Z"/><path class="cls-2" d="M25,87H96.58l-1.82,25.79S30.43,109.94,25,104V87Z"/><path class="cls-2" d="M100.68,87h72.37v16.84s-16.23,7.74-70.55,9Z"/><path class="cls-2" d="M71.25,169.72s9.56-21.24,27.92-7.89c0,0,17.9-14.87,28.22,8.5C127.38,170.32,104.47,182.16,71.25,169.72Z"/></svg>