<svg id="2366cf9d-a328-442a-8bdf-3e304ccfd530" data-name="Faces" xmlns="http://www.w3.org/2000/svg" viewBox="0 0 200 200">
  <title>face</title>
  <g>
    <path d="M100,195.36c-52,0-94.22-42.78-94.22-95.36S48,4.64,100,4.64,194.22,47.42,194.22,100,152,195.36,100,195.36Z" style="fill: #fff; fill-opacity: 0.5;"/>
    <path d="M100,8.28c49.95,0,90.58,41.14,90.58,91.72S149.95,191.72,100,191.72,9.42,150.57,9.42,100,50.05,8.28,100,8.28M100,1C46,1,2.14,45.32,2.14,100S46,199,100,199s97.86-44.32,97.86-99S154,1,100,1h0Z"/>
  </g>
  <path d="M61,171.87S60.38,101.6,101,101.6s37.78,70.27,37.78,70.27H61Z"/>
  <path d="M80.55,116.88s6.22-11,18.62-11v11H80.55Z" style="fill: #fff"/>
  <path d="M121.12,116.88s-6.22-11-18.62-11v11h18.62Z" style="fill: #fff"/>
  <path d="M73.46,166.7s6.19-24.47,26.54-10.24c0,0,20.46-14.68,27.06,10.24H73.46Z" style="fill: #fff"/>
  <path d="M48.09,38.65L77.2,56S85.85,80.33,61,82.6C37.23,84.78,41.19,43.14,48.09,38.65Z"/>
  <path d="M122.83,56l28.92-16.21s17.44,37.74-11.65,43.45C140.1,83.28,113.45,86.91,122.83,56Z"/>
  <circle cx="55.7" cy="63.75" r="7.7" style="fill: #fff"/>
  <circle cx="133.3" cy="65.79" r="7.7" style="fill: #fff"/>
</svg>
