<svg id="Faces" xmlns="http://www.w3.org/2000/svg" viewBox="0 0 200 200"><defs><style>.cls-1{fill:none;stroke:#000;stroke-miterlimit:10;stroke-width:7.28px;}.cls-2{fill:#fff;}</style></defs><title>faces</title><path d="M100,8.28c49.95,0,90.58,41.14,90.58,91.72S149.95,191.72,100,191.72,9.42,150.57,9.42,100,50.05,8.28,100,8.28M100,1C46,1,2.14,45.32,2.14,100S46,199,100,199s97.86-44.32,97.86-99S154,1,100,1h0Z"/><line class="cls-1" x1="104.98" y1="146.66" x2="146.86" y2="140.28"/><path d="M42.32,71.17S38.07,94.84,59.77,94.84,78.58,71.17,78.58,71.17H42.32Z"/><path d="M122.73,71.17s-4.25,23.67,17.45,23.67S159,71.17,159,71.17H122.73Z"/><circle class="cls-2" cx="51.16" cy="79.71" r="6.45"/><circle class="cls-2" cx="131.72" cy="79.71" r="6.45"/></svg>